# xmcd
#
# Track frame offsets:
#	150
#	15711
#	30114
#	42450
#	54474
#	65169
#	79499
#	94304
#	111371
#	126043
#	141642
#	153142
#	164497
#	173851
#	184194
#	198665
#	213209
#
# Disc length: 3104 seconds
#
# Revision: 2
# Processed by: cddbd v1.5.1PL0 Copyright (c) Steve Scherf et al.
# Submitted via: audiograbber 1.83.01
#
DISCID=f70c1e11
DTITLE=Tom Astor and Friends - Tom Astir und seine Zeit - CD 2
DYEAR=2000
DGENRE=Vocal
TTITLE0=Tom Astor and The Jordanaires - Bist du einsam heut' nacht
TTITLE1=Tanya Tucker - Just another love
TTITLE2=Tom Astor and John Carter Cash - Fly little Bird
TTITLE3=Wanda Jackson - Stand by your man
TTITLE4=Billie Jo Spears - What I've got in mind
TTITLE5=Gunter Gabriel - Hey, Boss, ich brauch' mehr Geld
TTITLE6=Bellamy Brothers - Let your love flow
TTITLE7=Tom Astor and Gunter Gabriel - Sturm und Drang
TTITLE8=Glen Campbell - Rhinestone cowboy
TTITLE9=Kenny Rogers - Unchainend melody
TTITLE10=Crystal Gayle - Don't it make my brown eyes blue
TTITLE11=Sonny James - Young love
TTITLE12=Glen Campbell and Bobbie Gentry - Let it be me
TTITLE13=Jody Miller - Queen of the house
TTITLE14=Don Williams - Another place, another time
TTITLE15=Eddie Rabbitt - American boy
TTITLE16=Tom Astor and Johnny Cash - Johnny Cash Hit-Medley
EXTD=
EXTT0=
EXTT1=
EXTT2=
EXTT3=
EXTT4=
EXTT5=
EXTT6=
EXTT7=
EXTT8=
EXTT9=
EXTT10=
EXTT11=
EXTT12=
EXTT13=
EXTT14=
EXTT15=
EXTT16=Ring of fire, I walk the line, Folsom prison blues
PLAYORDER=
